<svg height="512pt" viewBox="-60 0 512 512.00102" width="512pt" xmlns="http://www.w3.org/2000/svg"><path d="m365.28125 306.332031.046875-133.980469c.003906-9.953124-.898437-19.765624-2.648437-29.351562h-121.578126l-2.191406 81 3.953125 82.335938h122.417969zm0 0" fill="#c57a44"/><path d="m29.960938 300.226562.136718 6.109376h214.441406v-163.335938h-185.113281c-11.832031 22.949219-33.628906 64.484375-38.085937 67.769531-12.929688 9.539063-21.339844 24.871094-21.339844 42.136719 0 20.128906 11.761719 38.703125 29.960938 47.320312zm0 0" fill="#d88a55"/><path d="m383.789062 422.546875-31.300781-31.300781-107.949219 1.570312-5.628906 65.851563 5.628906 53.332031h148.039063v-68.238281c0-7.957031-3.164063-15.589844-8.789063-21.214844zm0 0" fill="#ffb62d"/><path d="m102.578125 405.335938 14.421875 106.664062h127.539062v-108.730469zm0 0" fill="#fdcb02"/><path d="m381.910156 298.667969v-57.667969h-60.101562l-11.152344-32h-66.117188l-5.628906 47 5.628906 53.335938zm0 0" fill="#d8d8d8"/><path d="m244.539062 209h-66.710937l-11.152344 32h-19.433593l-62 57.667969 159.296874 10.667969zm0 0" fill="#e8e8e8"/><path d="m244.539062 420.335938h137.371094v-121.667969h-137.371094l-5.628906 64zm0 0" fill="#7a8c98"/><path d="m85.242188 298.667969h159.296874v121.667969h-159.296874zm0 0" fill="#9facba"/><path d="m244.539062 284.375-10.667968 62.335938 10.667968 73.664062c37.492188 0 68-30.503906 68-68s-30.503906-68-68-68zm0 0" fill="#d8d8d8"/><path d="m176.539062 352.375c0 37.496094 30.503907 68 68 68v-136c-37.496093 0-68 30.503906-68 68zm0 0" fill="#e8e8e8"/><path d="m244.539062 314.335938-10.667968 32.332031 10.667968 43.667969c20.953126 0 38-17.050782 38-38 0-20.953126-17.046874-38-38-38zm0 0" fill="#292929"/><path d="m206.539062 352.335938c0 20.949218 17.046876 38 38 38v-76c-20.953124 0-38 17.046874-38 38zm0 0" fill="#444"/><path d="m21.242188 321.335938h95.757812v190.664062h-95.757812zm0 0" fill="#fddc46"/><path d="m73.578125 241c-34.738281 0-63 28.261719-63 63s28.261719 63 63 63h43.546875l4.390625-4.394531c16.589844-16.589844 25.726563-38.644531 25.726563-62.109375v-59.496094zm0 0" fill="#f6a96c"/><path d="m244.539062 0-5.539062 99 5.539062 55.90625h100.128907c2.746093 0 5.503906-.242188 8.191406-.714844 18.5-3.265625 32.714844-17.765625 36.515625-36.019531l.519531-118.171875zm0 0" fill="#673416"/><path d="m180.828125.449219c-41.964844 3.019531-80.976563 21.101562-110.582031 51.4375-31.558594 32.335937-48.925782 75.027343-48.910156 120.21875l.003906 38.664062c8.683594-6.402343 19.402344-10.199219 30.996094-10.199219h4.097656l10.667968-45.664062h177.4375v-154.90625zm0 0" fill="#824520"/></svg>